<svg xmlns="http://www.w3.org/2000/svg" version="1.1" xmlns:xlink="http://www.w3.org/1999/xlink" xmlns:svgjs="http://svgjs.dev/svgjs" width="1500" height="421" viewBox="0 0 1500 421"><g transform="matrix(1,0,0,1,-3.5383660393910077,-2.10571355932197)"><svg viewBox="0 0 210 59" data-background-color="#ffffff" preserveAspectRatio="xMidYMid meet" height="421" width="1500" xmlns="http://www.w3.org/2000/svg" xmlns:xlink="http://www.w3.org/1999/xlink"><g id="tight-bounds" transform="matrix(1,0,0,1,0.49537124551474676,0.2950999999999908)"><svg viewBox="0 0 209.0092575089705 58.4098" height="58.4098" width="209.0092575089705"><g><svg viewBox="0 0 209.0092575089705 58.4098" height="58.4098" width="209.0092575089705"><g><svg viewBox="0 0 209.0092575089705 58.4098" height="58.4098" width="209.0092575089705"><g id="textblocktransform"><svg viewBox="0 0 209.0092575089705 58.4098" height="58.4098" width="209.0092575089705" id="textblock"><g><svg viewBox="0 0 209.0092575089705 58.4098" height="58.4098" width="209.0092575089705"><g><svg><g></g><g></g></svg></g><g><svg><g></g><g><svg></svg></g></svg></g><g id="text-0"><svg viewBox="0 0 209.0092575089705 58.4098" height="58.4098" width="209.0092575089705"><g transform="matrix(1,0,0,1,0,11.154899999999998)"><svg width="77.5" viewBox="0.9 -35.6 77.49 36.1" height="36.1" data-palette-color="#000000"><path d="M15.4 0L8.95 0 8.95-29.2 0.9-29.2 0.9-34.85 23.45-34.85 23.45-29.2 15.4-29.2 15.4 0ZM31.8 0L25.55 0 25.55-24.9 31.2-24.9 31.5-20.5Q31.9-21.48 32.73-22.58 33.57-23.68 35.06-24.44 36.55-25.2 38.9-25.2L38.9-25.2Q39.62-25.2 40.17-25.1 40.72-25 41.2-24.8L41.2-24.8 39.8-18.25Q39-19.05 37.35-19.05L37.35-19.05Q35.42-19.05 34.2-18.26 32.97-17.48 32.39-16.5 31.8-15.53 31.8-15L31.8-15 31.8 0ZM54.3 0.5L54.3 0.5Q48.8 0.5 45.8-2.95 42.8-6.4 42.8-12.5L42.8-12.5Q42.8-18.65 45.9-22.08 49-25.5 54.5-25.5L54.5-25.5Q60.02-25.5 62.91-21.96 65.8-18.43 65.8-12.5L65.8-12.5Q65.8-6.58 62.81-3.04 59.82 0.5 54.3 0.5ZM54.4-4.5L54.4-4.5Q59.15-4.5 59.15-12.5L59.15-12.5Q59.15-20.55 54.4-20.55L54.4-20.55Q52.05-20.55 50.75-18.69 49.45-16.82 49.45-12.5L49.45-12.5Q49.45-8.2 50.75-6.35 52.05-4.5 54.4-4.5ZM78.39-28.95L71.39-28.95 71.39-35.6 78.39-35.6 78.39-28.95ZM78.14 0L71.64 0 71.64-24.9 78.14-24.9 78.14 0Z" opacity="1" transform="matrix(1,0,0,1,0,0)" fill="#000000" class="undefined-tk-0"></path></svg></g><g><svg xmlns="http://www.w3.org/2000/svg" xmlns:xlink="http://www.w3.org/1999/xlink" version="1.1" x="91.2902" y="0" viewBox="12.877257620633753 35.09614102895552 487.0280132447704 442.9038589710445" style="enable-background:new 0 0 512 512;" xml:space="preserve" height="58.4098" width="64.2288575089705" class="icon-dxe-0" data-fill-palette-color="accent" id="dxe-0"><g fill="#000000" data-fill-palette-color="accent"><g fill="#000000" data-fill-palette-color="accent"><g fill="#000000" data-fill-palette-color="accent"><path d="M359.5 477.8H189.4C180.5 477.8 173.3 470.6 173.3 461.7V418C173.3 404.2 172.3 390.2 170.4 376.5 170.1 374.3 171.6 372.3 173.8 372S178 373.2 178.3 375.4C180.3 389.5 181.3 403.9 181.3 418V461.8C181.3 466.3 184.9 469.9 189.4 469.9H359.5C364 469.9 367.6 466.3 367.6 461.8V419.2C367.6 417 369.4 415.2 371.6 415.2H419.1C435.9 415.2 449.6 401.5 449.6 384.7V324C449.6 321.8 451.3 320 453.5 320L481.3 319.5C485.1 319.4 488.5 317.4 490.4 314.2 492.3 310.9 492.4 307 490.7 303.7L460.3 246.4C453.3 233 449.6 218.1 449.6 203.1 449.6 160.1 432.8 119.7 402.2 89.4 371.7 59.1 331.1 42.6 288.1 43 256.8 43.2 226.7 52.4 200.9 69.6 199.1 70.8 196.6 70.3 195.4 68.5S194.7 64.2 196.5 63C223.5 45 255.2 35.3 288 35.1 333.2 34.8 375.7 52 407.8 83.8S457.5 158 457.5 203.2C457.5 216.9 460.9 230.5 467.3 242.7L497.7 300C500.8 305.8 500.6 312.7 497.3 318.4 493.9 324.1 488 327.6 481.4 327.7L457.5 328.1V384.7C457.5 405.9 440.2 423.2 419 423.2H375.5V461.8C375.6 470.6 368.4 477.8 359.5 477.8" fill="#000000" data-fill-palette-color="accent"></path></g><g fill="#000000" data-fill-palette-color="accent"><path d="M294.1 163C293.3 163 292.5 162.8 291.8 162.2 290 160.9 289.6 158.4 290.9 156.6L303.9 138.6 301.8 40C301.8 37.8 303.5 36 305.7 35.9H305.8C308 35.9 309.8 37.6 309.8 39.8L312 139.8C312 140.7 311.8 141.5 311.2 142.2L297.4 161.3C296.5 162.5 295.3 163 294.1 163" fill="#000000" data-fill-palette-color="accent"></path></g><g fill="#000000" data-fill-palette-color="accent"><path d="M375.5 175.6C374.2 175.6 373 175 372.2 173.9L360 156.1C359.5 155.4 359.3 154.6 359.3 153.8L360.4 57C360.4 54.8 362.2 53 364.4 53S368.4 54.8 368.4 57L367.4 152.5 378.8 169.3C380 171.1 379.6 173.6 377.7 174.9 377 175.4 376.2 175.6 375.5 175.6" fill="#000000" data-fill-palette-color="accent"></path></g><g fill="#000000" data-fill-palette-color="accent"><path d="M305.7 478C303.5 478 301.8 476.3 301.7 474.1L299.5 390.8C299.4 388.6 301.2 386.8 303.4 386.7S307.4 388.4 307.5 390.6L309.7 473.9C309.8 476.1 308 477.9 305.8 478z" fill="#000000" data-fill-palette-color="accent"></path></g><g fill="#000000" data-fill-palette-color="accent"><path d="M270.6 476.5C268.4 476.5 266.6 474.8 266.6 472.6L265.9 430.9 252.7 419C251.1 417.5 250.9 415 252.4 413.4S256.4 411.6 258 413.1L272.5 426.1C273.3 426.8 273.8 427.9 273.8 429L274.5 472.4C274.6 474.7 272.9 476.5 270.6 476.5" fill="#000000" data-fill-palette-color="accent"></path></g><g fill="#000000" data-fill-palette-color="accent"><path d="M147.3 347.2H107.2C105 347.2 103.2 345.4 103.2 343.2V321.2C86.1 316.8 70.6 307.9 58.1 295.1L39 306.2C38.1 306.7 37 306.9 36 306.6S34.1 305.7 33.6 304.7L13.6 270C12.5 268.1 13.2 265.7 15.1 264.5L34 253.4C31.6 245 30.4 236.3 30.4 227.4S31.6 209.8 34 201.3L14.9 190.3C13 189.2 12.3 186.8 13.4 184.8L33.4 150.1C34.5 148.2 36.9 147.5 38.9 148.6L58 159.6C70.5 146.9 85.9 137.9 103.1 133.5V111.4C103.1 109.2 104.9 107.4 107.1 107.4H147.2C149.4 107.4 151.2 109.2 151.2 111.4V133.5C168.3 137.9 183.8 146.8 196.3 159.6L215.4 148.6C217.3 147.5 219.8 148.2 220.9 150.1L240.9 184.8C242 186.7 241.3 189.2 239.4 190.3L220.3 201.3C222.7 209.8 223.9 218.5 223.9 227.4S222.7 245 220.3 253.4L239.4 264.5C241.3 265.6 242 268 240.9 270L220.9 304.7C220.4 305.6 219.5 306.3 218.5 306.6S216.4 306.7 215.5 306.2L196.4 295.1C183.9 307.9 168.4 316.8 151.3 321.2V343.2C151.3 345.4 149.5 347.2 147.3 347.2M111.2 339.2H143.3V318C143.3 316.1 144.6 314.5 146.4 314.1 164.2 310.2 180.2 300.9 192.7 287.3 194 285.9 196 285.6 197.6 286.5L216 297.2 232 269.4 213.6 258.7C212 257.8 211.2 255.8 211.8 254 214.5 245.4 215.9 236.5 215.9 227.3 215.9 218.2 214.5 209.1 211.8 200.5 211.2 198.7 212 196.8 213.6 195.8L231.9 185.2 215.9 157.4 197.5 168C195.9 168.9 193.8 168.6 192.6 167.2 180.2 153.6 164.2 144.4 146.3 140.5 144.5 140.1 143.2 138.5 143.2 136.6V115.4H111.1V136.6C111.1 138.5 109.8 140.1 108 140.5 90.2 144.4 74.2 153.7 61.7 167.2 60.4 168.6 58.4 168.9 56.8 168L38.4 157.4 22.4 185.2 40.7 195.8C42.3 196.7 43.1 198.7 42.5 200.5A89.3 89.3 0 0 0 38.4 227.3C38.4 236.5 39.8 245.4 42.5 254 43.1 255.8 42.3 257.7 40.7 258.7L22.3 269.4 38.3 297.2 56.7 286.5C58.3 285.6 60.4 285.9 61.7 287.3 74.2 300.9 90.2 310.2 108 314.1 109.8 314.5 111.1 316.1 111.1 318z" fill="#000000" data-fill-palette-color="accent"></path></g><g fill="#000000" data-fill-palette-color="accent"><path d="M127.2 290.6C92.3 290.6 63.9 262.2 63.9 227.3S92.3 163.9 127.2 163.9 190.5 192.3 190.5 227.3 162.1 290.6 127.2 290.6M127.2 172C96.8 172 72 196.9 72 227.4S96.8 282.7 127.3 282.7 182.6 257.9 182.6 227.4C182.5 196.9 157.7 172 127.2 172" fill="#000000" data-fill-palette-color="accent"></path></g><g fill="#000000" data-fill-palette-color="accent"><path d="M127.2 264.2C106.9 264.2 90.4 247.7 90.4 227.4S106.9 190.6 127.2 190.6 164 207.1 164 227.4 147.5 264.2 127.2 264.2M127.2 198.6C111.3 198.6 98.4 211.5 98.4 227.4S111.3 256.2 127.2 256.2 156 243.3 156 227.4 143.1 198.6 127.2 198.6" fill="#000000" data-fill-palette-color="accent"></path></g><g fill="#000000" data-fill-palette-color="accent"><path d="M283.7 199.2C270.7 199.2 260.1 188.6 260.1 175.6S270.7 152 283.7 152 307.2 162.6 307.2 175.6 296.7 199.2 283.7 199.2M283.7 160.1C275.1 160.1 268.1 167.1 268.1 175.7S275.1 191.3 283.7 191.3C292.2 191.3 299.2 184.3 299.2 175.7 299.2 167 292.3 160.1 283.7 160.1" fill="#000000" data-fill-palette-color="accent"></path></g><g fill="#000000" data-fill-palette-color="accent"><path d="M386.3 211.5C373.3 211.5 362.8 200.9 362.8 187.9S373.3 164.3 386.3 164.3 409.9 174.9 409.9 187.9C409.8 200.9 399.3 211.5 386.3 211.5M386.3 172.3C377.8 172.3 370.8 179.3 370.8 187.9S377.8 203.5 386.3 203.5C394.9 203.5 401.9 196.5 401.9 187.9 401.8 179.3 394.9 172.3 386.3 172.3" fill="#000000" data-fill-palette-color="accent"></path></g><g fill="#000000" data-fill-palette-color="accent"><path d="M303.5 396.7C290.5 396.7 279.9 386.2 279.9 373.2S290.5 349.6 303.5 349.6 327 360.2 327 373.2C327 386.1 316.5 396.7 303.5 396.7M303.5 357.6C294.9 357.6 287.9 364.6 287.9 373.2S294.9 388.7 303.5 388.7C312 388.7 319 381.7 319 373.2 319 364.6 312.1 357.6 303.5 357.6" fill="#000000" data-fill-palette-color="accent"></path></g><g fill="#000000" data-fill-palette-color="accent"><path d="M242.7 425.6C229.7 425.6 219.2 415 219.2 402S229.7 378.5 242.7 378.5 266.3 389 266.3 402 255.7 425.6 242.7 425.6M242.7 386.5C234.2 386.5 227.2 393.5 227.2 402 227.2 410.6 234.2 417.6 242.7 417.6 251.3 417.6 258.3 410.6 258.3 402 258.3 393.5 251.3 386.5 242.7 386.5" fill="#000000" data-fill-palette-color="accent"></path></g></g></g></svg></g><g transform="matrix(1,0,0,1,169.3092575089705,10.904899999999998)"><svg width="39.7" viewBox="-0.85 -35.6 39.7 35.6" height="35.6" data-palette-color="#000000"><path d="M6.15 0L-0.85 0 13.9-35.45 14.4-35.45 29.2 0 22.4 0 20.45-5.05 8-5.05 6.15 0ZM14.1-22.2L13.3-19.4 9.8-9.9 18.6-9.9 14.95-19.4 14.1-22.2ZM38.85-28.95L31.85-28.95 31.85-35.6 38.85-35.6 38.85-28.95ZM38.6 0L32.1 0 32.1-24.9 38.6-24.9 38.6 0Z" opacity="1" transform="matrix(1,0,0,1,0,0)" fill="#000000" class="undefined-tk-1"></path></svg></g></svg></g></svg></g></svg></g></svg></g></svg></g><defs></defs></svg><rect width="209.0092575089705" height="58.4098" fill="none" stroke="none" visibility="hidden"></rect></g></svg></g></svg>